<?xml version="1.0" standalone="no"?>
<!DOCTYPE svg PUBLIC "-//W3C//DTD SVG 20010904//EN"
 "http://www.w3.org/TR/2001/REC-SVG-20010904/DTD/svg10.dtd">
<svg version="1.0" xmlns="http://www.w3.org/2000/svg"
 width="700.000000pt" height="700.000000pt" viewBox="0 0 700.000000 700.000000"
 preserveAspectRatio="xMidYMid meet">
<metadata>
Created by potrace 1.14, written by Peter Selinger 2001-2017
</metadata>
<g transform="translate(0.000000,700.000000) scale(0.100000,-0.100000)"
fill="#000000" stroke="none">
<path d="M5775 6905 l-1 -95 463 0 c255 0 463 -3 463 -6 0 -4 -10 -15 -22 -26
-13 -11 -70 -64 -128 -117 -58 -54 -117 -109 -131 -122 -69 -63 -252 -232
-324 -298 -44 -41 -107 -100 -140 -130 -33 -31 -87 -81 -120 -112 l-60 -56 1
-74 c1 -41 2 -79 3 -84 1 -7 196 -11 609 -10 l607 0 3 96 3 95 -453 0 c-249
-1 -459 1 -466 3 -9 3 -5 12 15 28 15 13 51 45 78 71 80 74 289 268 390 360
28 25 79 73 115 106 228 212 303 281 311 284 5 2 9 44 9 93 l0 89 -612 0 -613
0 0 -95z"/>
<path d="M2857 6560 c-9 -4 -13 -41 -13 -137 l-1 -133 669 0 668 0 -67 -63
c-38 -35 -102 -94 -143 -133 -127 -117 -201 -185 -314 -289 -59 -55 -123 -113
-141 -130 -17 -16 -76 -70 -130 -120 -54 -49 -115 -106 -135 -125 -21 -19 -79
-73 -130 -120 -51 -47 -107 -98 -124 -115 -18 -16 -60 -55 -92 -85 l-60 -55 1
-120 0 -120 873 -1 c803 -2 872 -1 873 15 3 48 4 228 1 242 -3 14 -73 15 -663
15 -362 -1 -659 2 -659 5 0 3 28 32 63 64 85 79 152 141 292 270 66 61 153
142 195 180 42 39 127 117 189 175 63 58 132 122 155 143 23 22 61 57 86 79
25 22 90 82 145 134 55 51 122 113 149 137 l50 44 0 112 c1 62 -1 117 -4 124
-4 9 -200 12 -863 12 -472 0 -863 -2 -870 -5z"/>
<path d="M3939 4350 c-5 -212 -2 -380 6 -383 6 -2 454 -3 998 -3 543 1 987 -2
987 -5 0 -3 -41 -44 -91 -90 -50 -46 -106 -97 -123 -114 -18 -16 -79 -73 -136
-125 -56 -52 -115 -106 -130 -120 -15 -14 -73 -68 -130 -120 -57 -52 -119
-110 -139 -129 -20 -18 -78 -72 -130 -120 -52 -47 -106 -97 -121 -111 -15 -14
-71 -65 -125 -115 -54 -49 -135 -124 -179 -166 -45 -41 -108 -100 -141 -130
-32 -29 -69 -63 -81 -74 -11 -11 -67 -63 -124 -115 -57 -52 -136 -125 -174
-161 -39 -36 -93 -85 -119 -110 l-49 -45 -1 -179 -1 -180 1312 -3 c722 -1
1312 1 1313 5 1 11 1 375 0 391 -1 9 -207 12 -996 12 -622 0 -995 4 -995 10 0
5 6 13 14 17 8 4 65 56 127 115 63 58 124 115 137 126 23 20 163 149 306 282
129 120 171 158 201 186 17 15 83 77 149 138 65 61 127 118 136 126 15 13 61
55 244 224 37 33 101 93 256 236 196 182 347 321 393 363 l31 27 -1 175 c0 96
-3 179 -7 183 -4 3 -594 7 -1312 7 l-1304 0 -1 -25z"/>
<path d="M0 3227 l0 -274 1323 1 c727 1 1327 0 1333 -2 10 -3 -32 -46 -161
-164 -27 -25 -66 -61 -86 -79 -20 -19 -81 -74 -134 -124 -54 -49 -112 -103
-129 -119 -17 -15 -75 -69 -130 -120 -55 -50 -111 -102 -126 -116 -15 -14 -54
-50 -87 -80 -32 -30 -112 -104 -176 -164 -65 -60 -126 -117 -137 -126 -11 -10
-66 -60 -121 -111 -56 -52 -114 -105 -129 -119 -15 -14 -79 -72 -141 -130
-158 -146 -237 -219 -363 -335 -60 -55 -120 -111 -135 -125 -15 -14 -54 -50
-87 -80 -32 -30 -113 -105 -179 -166 -127 -118 -137 -127 -258 -237 l-77 -71
0 -243 0 -243 1750 0 1750 0 -2 273 -3 272 -1310 2 c-720 1 -1320 2 -1332 2
-18 1 -13 9 35 54 31 28 64 59 72 67 12 12 330 304 386 355 6 6 60 56 120 111
60 56 121 112 135 125 42 38 239 221 280 259 20 19 57 53 81 74 23 22 72 67
108 100 36 34 116 108 179 166 133 122 137 126 267 247 54 50 113 103 129 118
39 36 218 202 260 240 17 17 78 73 135 125 57 52 111 102 119 110 9 8 66 60
126 116 61 56 134 123 163 149 l52 49 0 243 0 243 -1750 0 -1750 0 0 -273z"/>
</g>
</svg>
