<?xml version="1.0" standalone="no"?>
<!DOCTYPE svg PUBLIC "-//W3C//DTD SVG 20010904//EN"
 "http://www.w3.org/TR/2001/REC-SVG-20010904/DTD/svg10.dtd">
<svg version="1.0" xmlns="http://www.w3.org/2000/svg"
 width="700.000000pt" height="700.000000pt" viewBox="0 0 700.000000 700.000000"
 preserveAspectRatio="xMidYMid meet">
<metadata>
Created by potrace 1.14, written by Peter Selinger 2001-2017
</metadata>
<g transform="translate(0.000000,700.000000) scale(0.100000,-0.100000)"
fill="#000000" stroke="none">
<path d="M607 6385 c-2 -5 -2 -73 -2 -150 l1 -140 1213 -2 c667 -1 1215 -4
1217 -6 3 -2 -41 -46 -97 -98 -56 -52 -117 -107 -134 -124 -29 -27 -169 -156
-264 -243 -20 -18 -52 -48 -71 -65 -19 -18 -69 -64 -110 -102 -42 -39 -129
-120 -195 -181 -66 -61 -147 -135 -179 -165 -32 -30 -75 -69 -95 -88 -20 -18
-76 -70 -125 -115 -49 -44 -106 -97 -127 -117 -42 -39 -236 -218 -254 -234 -6
-5 -40 -37 -75 -70 -133 -122 -307 -284 -364 -336 -88 -81 -115 -106 -182
-168 -33 -31 -82 -76 -109 -100 l-49 -45 -1 -148 c-1 -142 0 -148 20 -149 121
-4 2827 0 2832 4 4 5 8 222 4 280 -1 16 -66 17 -1221 17 l-1220 0 77 73 c42
39 92 87 111 104 19 18 71 65 115 105 43 40 94 87 112 103 17 17 83 77 146
135 63 58 145 134 184 170 38 36 74 70 81 75 6 6 62 57 125 115 62 58 142 132
178 165 36 33 95 87 131 121 36 33 92 85 124 115 33 29 73 67 90 83 17 15 76
69 130 120 54 50 111 102 126 116 15 14 69 63 120 110 51 47 107 99 125 115
79 74 170 158 275 255 63 58 132 121 153 141 l39 36 0 129 c0 71 0 138 -1 149
-1 20 -8 20 -1426 20 -941 0 -1426 -3 -1428 -10z"/>
<path d="M3539 6360 c0 -19 -1 -662 -2 -1428 l-2 -1392 25 -1 c34 -1 2790 -1
2815 0 20 1 20 7 18 1423 0 783 -1 1425 -2 1428 -1 5 -266 5 -293 1 -5 0 -8
-575 -8 -1276 l0 -1275 -1122 2 -1123 3 -2 1145 c-2 630 -3 1204 -3 1275 l0
130 -150 0 -150 0 -1 -35z"/>
<path d="M640 3460 l-35 -5 0 -1415 c-1 -778 1 -1420 2 -1425 2 -6 59 -10 151
-10 l147 0 0 1218 c0 669 3 1217 6 1217 4 0 46 -44 95 -97 49 -53 107 -115
129 -139 22 -23 76 -81 120 -129 44 -48 96 -105 115 -125 19 -21 76 -82 125
-135 50 -54 104 -113 120 -131 74 -79 224 -241 246 -265 13 -15 65 -71 114
-125 50 -54 101 -109 113 -123 13 -14 72 -77 130 -140 59 -63 114 -122 123
-132 17 -20 164 -180 260 -283 62 -66 69 -75 209 -226 52 -57 124 -134 158
-171 35 -38 72 -78 82 -89 10 -12 40 -44 66 -72 l48 -51 144 -1 c79 -1 146 3
149 8 5 7 8 2786 4 2841 -1 8 -166 12 -283 6 -17 -1 -18 -66 -18 -1223 l0
-1222 -27 31 c-25 27 -168 182 -261 282 -48 51 -101 109 -227 246 -60 66 -133
145 -161 175 -29 30 -65 69 -80 86 -16 17 -72 77 -124 134 -52 56 -102 110
-110 120 -14 16 -182 198 -259 279 -18 20 -65 71 -105 115 -39 43 -87 95 -106
115 -19 20 -82 88 -140 151 -58 63 -114 124 -125 136 -11 12 -42 46 -70 76
-27 30 -79 86 -115 124 -72 78 -233 253 -302 327 l-44 48 -115 2 c-62 1 -130
0 -149 -3z"/>
<path d="M3568 3462 c-18 -2 -28 -9 -29 -20 -3 -69 -1 -274 3 -277 3 -3 289
-5 636 -5 588 -1 632 -2 633 -18 1 -9 2 -515 3 -1124 l1 -1108 -637 0 c-504 0
-638 -3 -639 -12 0 -21 -1 -220 0 -258 l1 -35 1418 1 c779 1 1422 2 1427 3 8
1 13 240 6 294 -1 4 -287 7 -636 7 -501 0 -635 3 -636 13 -1 16 -1 2197 0
2219 1 17 39 18 594 18 325 -1 612 0 637 0 l45 0 0 150 c0 126 -2 150 -15 151
-65 2 -2791 3 -2812 1z"/>
</g>
</svg>
