<?xml version="1.0" encoding="UTF-8" standalone="no"?>
<!--
   - © 2023 kimzuni <hello@kimzuni.com>
   - Create Date : 2023.12.03
   - Latest Date : 2023.12.03
   -->
<svg xmlns="http://www.w3.org/2000/svg" viewBox="0 0 64 64">
	<g fill="#5cc9ff" stroke-width="0">
		<path d="m 0,28 h 15 c 10,0 10,9 10,9 0,10 -10,10 -10,10 h -10 v -3 h 10 c 5,0 5,-6 5,-6 s 0,-6 -5,-6 h -10 v 32 h -5 z"/>
		<path d="m 36,24 h 24 v 3.75 l -18,16.5 h 18 v 3.75 h -24 v -3.75 l 18,-16.5 h -18 z"/>
		<path d="m 26,4 h 16 v 2.5 l -12,11 h 12 v 2.5 h -16 v -2.5 l 12,-11 h -12 z"/>
		<path d="m 52.8,0 h 11.2 v 1.75 l -8.4,7.7 h 8.4 v 1.75 h -11.2 v -1.75 l 8.4,-7.7 h -8.4 z"/>
	</g>
</svg>
