<?xml version="1.0" standalone="no"?>
<!DOCTYPE svg PUBLIC "-//W3C//DTD SVG 20010904//EN"
 "http://www.w3.org/TR/2001/REC-SVG-20010904/DTD/svg10.dtd">
<svg version="1.0" xmlns="http://www.w3.org/2000/svg"
 width="700.000000pt" height="700.000000pt" viewBox="0 0 700.000000 700.000000"
 preserveAspectRatio="xMidYMid meet">
<metadata>
Created by potrace 1.14, written by Peter Selinger 2001-2017
</metadata>
<g transform="translate(0.000000,700.000000) scale(0.100000,-0.100000)"
fill="#000000" stroke="none">
<path d="M5775 6905 l-1 -95 460 0 460 0 -45 -42 c-50 -47 -221 -204 -249
-228 -9 -8 -63 -58 -120 -110 -56 -52 -115 -106 -130 -120 -15 -14 -66 -61
-115 -105 -48 -44 -117 -108 -154 -142 -36 -34 -69 -63 -73 -63 -25 -1 -42
-120 -29 -215 1 -7 196 -11 609 -10 l607 0 3 96 3 96 -456 -1 c-250 -1 -455 2
-455 5 0 3 17 20 38 38 20 19 82 75 137 125 55 50 105 96 111 101 6 6 62 57
125 115 62 58 145 134 184 170 39 36 119 110 179 165 60 55 115 104 122 108
10 6 14 33 14 107 l0 100 -612 0 -613 0 0 -95z"/>
<path d="M2857 6560 c-9 -4 -13 -41 -13 -137 l-1 -133 656 0 656 -1 -61 -57
c-50 -47 -166 -153 -378 -347 -12 -11 -69 -63 -126 -115 -57 -52 -113 -104
-125 -115 -13 -11 -63 -57 -111 -101 -232 -213 -344 -316 -398 -365 -27 -24
-63 -58 -80 -74 l-32 -31 1 -134 0 -135 873 -1 c803 -2 872 -1 873 15 3 48 4
228 1 242 -3 14 -72 15 -653 15 -357 -1 -649 2 -649 5 0 3 17 20 38 38 41 37
219 199 297 272 43 40 101 93 365 334 46 42 162 149 235 216 22 20 54 49 70
64 73 66 233 213 265 245 l35 35 -1 125 c-1 69 -2 130 -3 135 -1 10 -1709 15
-1734 5z"/>
<path d="M3939 4350 c-5 -212 -2 -380 6 -383 6 -2 448 -3 983 -3 534 1 972 -1
972 -3 0 -2 -10 -12 -22 -23 -22 -18 -175 -159 -223 -203 -11 -11 -48 -45 -80
-74 -33 -30 -89 -82 -126 -115 -136 -127 -272 -252 -293 -269 -11 -10 -65 -60
-120 -110 -55 -51 -110 -101 -122 -112 -12 -11 -66 -60 -120 -110 -54 -49
-157 -144 -229 -209 -233 -214 -355 -326 -520 -478 -33 -31 -71 -65 -84 -75
-24 -20 -24 -20 -24 -224 l0 -204 1311 -3 c722 -1 1312 1 1313 5 1 11 1 375 0
391 -1 9 -205 12 -983 12 l-983 0 60 56 c33 31 78 72 100 92 33 30 141 128
275 252 15 14 56 51 91 84 35 32 107 97 159 145 52 48 181 166 285 261 105 96
213 195 240 220 46 43 112 104 224 205 24 22 49 45 55 50 46 42 171 157 216
199 31 28 103 94 160 148 l105 96 -1 196 c-1 108 -4 200 -8 204 -4 4 -594 7
-1312 7 l-1304 0 -1 -25z"/>
<path d="M0 3227 l0 -274 1301 1 c715 1 1306 -2 1311 -5 6 -4 5 -10 -5 -15 -8
-5 -62 -54 -121 -108 -59 -55 -117 -108 -129 -118 -12 -11 -42 -38 -67 -62
-25 -23 -97 -89 -160 -146 -63 -58 -124 -114 -136 -125 -19 -18 -173 -160
-228 -210 -13 -11 -67 -60 -121 -110 -54 -49 -107 -98 -119 -108 -12 -10 -68
-63 -126 -117 -58 -53 -127 -117 -154 -141 -27 -24 -61 -55 -75 -69 -15 -14
-51 -47 -81 -74 -30 -28 -107 -98 -170 -156 -63 -59 -137 -126 -164 -151 -28
-24 -57 -51 -66 -59 -9 -8 -63 -58 -120 -110 -57 -52 -115 -106 -130 -120 -14
-14 -68 -63 -120 -110 -52 -47 -101 -92 -110 -100 -9 -8 -59 -55 -113 -104
l-97 -89 0 -274 0 -273 1750 0 1750 0 -2 273 -3 272 -1295 2 c-712 1 -1302 2
-1310 2 -13 1 -13 3 1 14 14 10 137 123 260 237 15 14 60 55 100 91 41 37 88
80 104 95 17 16 75 70 129 119 54 50 115 106 136 125 21 19 75 69 121 110 45
41 89 82 98 90 9 9 65 61 125 115 125 114 109 99 249 229 59 54 115 106 125
115 11 9 61 54 112 101 51 47 104 96 119 109 14 13 71 65 126 116 55 51 114
105 130 120 85 78 200 183 224 204 14 13 73 67 131 121 58 53 153 141 213 194
l107 98 0 274 0 274 -1750 0 -1750 0 0 -273z"/>
</g>
</svg>
